<?xml version="1.0" standalone="no"?>
<!DOCTYPE svg PUBLIC "-//W3C//DTD SVG 20010904//EN"
 "http://www.w3.org/TR/2001/REC-SVG-20010904/DTD/svg10.dtd">
<svg version="1.0" xmlns="http://www.w3.org/2000/svg"
 width="700.000000pt" height="700.000000pt" viewBox="0 0 700.000000 700.000000"
 preserveAspectRatio="xMidYMid meet">
<metadata>
Created by potrace 1.14, written by Peter Selinger 2001-2017
</metadata>
<g transform="translate(0.000000,700.000000) scale(0.100000,-0.100000)"
fill="#000000" stroke="none">
<path d="M3588 6971 c-72 -46 -78 -72 -78 -324 l0 -212 -98 -34 c-53 -18 -132
-51 -174 -72 -43 -22 -82 -39 -87 -39 -6 0 -75 65 -154 144 -78 79 -158 151
-176 161 -41 21 -109 22 -147 2 -49 -25 -588 -571 -601 -609 -33 -93 -14 -128
176 -318 124 -125 155 -160 138 -161 -416 -17 -766 -312 -842 -709 -3 -14 -7
-35 -10 -47 -8 -33 -7 -180 0 -238 24 -186 109 -357 249 -502 28 -29 46 -53
41 -54 -6 -1 -27 -2 -48 -4 -88 -8 -194 -93 -228 -184 -49 -133 7 -297 123
-357 l28 -14 -5 -118 c-6 -141 -14 -269 -20 -337 -2 -27 -7 -81 -10 -120 -3
-38 -8 -81 -10 -95 -2 -14 -7 -47 -10 -75 -17 -142 -50 -323 -87 -475 -32
-132 -115 -399 -129 -414 -5 -6 -18 -11 -29 -13 -65 -10 -149 -80 -188 -156
-21 -43 -26 -65 -26 -127 0 -50 6 -86 17 -107 23 -43 21 -60 -5 -67 -40 -10
-146 -85 -209 -149 -80 -82 -151 -199 -186 -307 -27 -86 -28 -88 -67 -100 -57
-17 -99 -52 -126 -107 -22 -44 -23 -56 -23 -258 0 -232 6 -256 70 -317 65 -62
-56 -58 1758 -58 l1655 0 48 24 c51 26 71 46 99 98 15 28 18 63 19 248 1 207
0 217 -22 262 -26 52 -72 91 -128 111 -35 12 -39 17 -67 102 -17 50 -43 112
-59 140 -70 122 -193 240 -317 305 -26 14 -50 26 -52 28 -2 1 1 12 7 25 80
160 -10 355 -189 410 -33 10 -153 424 -194 667 -3 19 -8 42 -10 50 -2 8 -7 40
-10 70 -3 30 -8 62 -10 70 -2 8 -7 42 -10 75 -3 33 -12 113 -19 178 -7 64 -11
117 -10 117 2 0 38 -17 81 -38 43 -21 124 -56 180 -77 l103 -40 0 -219 c0
-216 0 -220 25 -262 47 -80 39 -78 485 -82 217 -2 410 0 428 3 40 7 99 57 116
99 9 22 13 94 14 245 1 118 3 215 4 216 2 1 44 17 93 35 50 18 130 52 178 75
l88 41 144 -142 c78 -79 158 -152 177 -164 36 -22 100 -26 145 -9 44 16 581
555 605 607 21 48 18 110 -9 151 -9 14 -81 90 -160 169 l-144 144 41 91 c23
51 46 101 51 112 5 11 20 51 33 90 l24 70 215 1 c248 0 275 6 320 77 27 42 30
56 29 182 -1 80 -20 114 -70 130 l-32 9 0 137 0 136 31 9 c58 17 72 50 72 162
-1 128 -19 168 -93 208 -31 15 -62 18 -250 18 -152 1 -217 4 -222 12 -4 7 -22
52 -39 100 -17 49 -49 124 -70 167 -22 44 -39 81 -39 84 0 2 68 72 151 155
175 175 192 203 168 291 -9 36 -50 82 -292 325 -155 156 -295 290 -311 299
-40 21 -107 18 -153 -6 -21 -11 -101 -83 -177 -161 -77 -77 -143 -140 -146
-140 -4 0 -49 20 -101 44 -113 52 -235 97 -243 89 -13 -13 -16 31 -19 242 -3
248 -6 260 -81 309 l-39 26 -412 0 -412 0 -45 -29z m637 -1601 c484 -123 724
-664 487 -1100 -82 -152 -214 -273 -367 -338 -101 -42 -186 -59 -295 -60 -353
-1 -646 223 -741 565 -31 111 -31 278 0 388 76 270 279 472 546 543 95 25 274
26 370 2z"/>
</g>
</svg>
